PathFileType	4	(X/Y/Z)	s09c0101.trc
DataRate	CameraRate	NumFrames	NumMarkers	Units	OrigDataRate	OrigDataStartFrame	OrigNumFrames
200	200	4	50	mm	200	500	2000
Frame#	Time	racr			lacr			c7			jug			rlel			rdr			llel			ldr			s2			lic			ric			lasi			rasi			rpsi			lpsi			rgt			lgt			rth1			rth2			rth3			rth4			rlfc			rmfc			rsh1			rsh2			rsh3			rsh4			rlmal			rmmal			rcal			rtoe			rmt5			lth1			lth2			lth4			lth3			llfc			lmfc			llmal			lmmal			lcal			lmt5			lsh1			lsh2			lsh3			lsh4			ltoe			SBIKE			LBIKE			RBIKE			
		X1	Y1	Z1	X2	Y2	Z2	X3	Y3	Z3	X4	Y4	Z4	X5	Y5	Z5	X6	Y6	Z6	X7	Y7	Z7	X8	Y8	Z8	X9	Y9	Z9	X10	Y10	Z10	X11	Y11	Z11	X12	Y12	Z12	X13	Y13	Z13	X14	Y14	Z14	X15	Y15	Z15	X16	Y16	Z16	X17	Y17	Z17	X18	Y18	Z18	X19	Y19	Z19	X20	Y20	Z20	X21	Y21	Z21	X22	Y22	Z22	X23	Y23	Z23	X24	Y24	Z24	X25	Y25	Z25	X26	Y26	Z26	X27	Y27	Z27	X28	Y28	Z28	X29	Y29	Z29	X30	Y30	Z30	X31	Y31	Z31	X32	Y32	Z32	X33	Y33	Z33	X34	Y34	Z34	X35	Y35	Z35	X36	Y36	Z36	X37	Y37	Z37	X38	Y38	Z38	X39	Y39	Z39	X40	Y40	Z40	X41	Y41	Z41	X42	Y42	Z42	X43	Y43	Z43	X44	Y44	Z44	X45	Y45	Z45	X46	Y46	Z46	X47	Y47	Z47	X48	Y48	Z48	X49	Y49	Z49	X50	Y50	Z50	
500	2.5000	505.803985	1251.283703	-30.477907	547.952111	1246.160925	-337.021732	500.390673	1292.508757	-184.023572	478.015910	1154.479743	-190.273285	450.415071	997.278321	18.253843	670.185111	887.889967	-37.974990	489.586539	1020.411757	-487.576450	689.933999	872.644570	-437.997323	13.592846	1148.146038	-227.929686	151.204047	1142.176634	-371.703993	148.300469	1140.028071	-67.853016	191.025147	1082.833136	-345.518196	193.389647	1090.491109	-89.412426	41.190595	1178.768093	-164.757795	44.202994	1188.494764	-274.222621	125.725189	994.830823	-40.956165	126.351213	1019.616408	-413.456970	236.779589	908.374093	-56.998957	313.670024	869.832775	-70.979329	357.857225	794.267642	-86.040803	335.127981	893.057606	-89.766003	419.117224	717.009597	-125.645176	397.521373	694.502566	-219.775497	391.078750	618.221978	-86.629743	398.263942	529.805079	-101.302345	362.989965	449.924130	-94.601984	418.561959	529.001240	-135.476151	340.927361	349.406085	-88.030851	336.613802	357.480189	-167.508636	271.421661	292.567070	-122.199374	529.896205	352.817382	-127.112563	455.289031	315.705625	-61.444787	225.539060	925.083561	-415.428710	299.142991	883.131594	-410.851218	324.301923	906.085064	-393.960718	344.731321	804.548570	-412.242190	378.065749	709.418684	-402.256333	388.168952	690.974417	-304.471785	111.378311	460.449889	-397.300924	133.118123	452.047218	-327.325802	40.782687	473.035419	-359.217530	132.642617	329.238485	-427.036305	307.502107	638.753997	-421.346778	262.123870	565.562630	-408.912369	183.638045	523.984664	-405.789995	282.364075	550.370568	-379.803439	211.800016	277.415280	-360.795340	-63.988429	853.410007	-238.320196	21.382251	84.499395	-441.544416	21.496800	83.926239	-43.370469	
501	2.5050	506.616946	1252.028794	-30.367923	547.799055	1246.295065	-338.197028	500.732846	1292.775318	-184.843338	478.502772	1154.653777	-190.722764	450.558768	997.855007	17.713560	670.161941	888.094663	-38.228699	489.544788	1020.310154	-488.180786	689.698086	872.625709	-438.274422	13.790178	1148.388490	-227.427608	151.413420	1142.641676	-371.480879	148.786016	1139.901540	-67.517763	191.103084	1083.173547	-345.355551	193.821120	1090.317129	-89.181614	41.588076	1178.859405	-164.264346	44.312343	1188.776370	-273.735972	125.871252	994.348769	-40.924524	127.051652	1020.728773	-413.488164	236.222683	906.946657	-56.295636	312.588546	867.733025	-70.804157	355.883239	791.299751	-86.622329	334.221278	890.396663	-90.254719	416.236509	713.746964	-126.320687	392.685988	690.337172	-219.185734	388.757228	614.942482	-87.006678	396.657057	526.645734	-101.600502	362.089290	446.431887	-94.845236	416.896845	525.909289	-135.830335	340.640975	345.675517	-88.188287	336.394617	353.652223	-167.551420	271.239685	289.145888	-122.249908	530.058094	347.987408	-127.183258	455.182030	311.267772	-61.545438	226.650614	926.505183	-415.371827	300.572047	885.093205	-410.634854	325.497394	908.217914	-393.480811	346.733793	806.813839	-411.960181	380.472749	711.966179	-401.790802	391.028595	693.278400	-303.750897	111.934017	464.900821	-397.314122	133.559043	456.506422	-327.323054	41.210506	477.583805	-359.271156	133.077824	333.714087	-427.028286	309.496638	641.726120	-421.031025	263.580874	568.963510	-408.634870	184.923455	528.085061	-405.823607	283.637212	553.598089	-379.382235	212.146687	281.783192	-360.738159	-63.826027	853.522597	-238.699170	21.387359	84.438665	-441.571359	21.509821	83.908660	-43.378725	
502	2.5100	507.355818	1252.686974	-30.871083	547.714552	1246.310994	-339.150582	501.082566	1293.141413	-185.700387	478.951519	1154.853201	-191.172379	450.754145	998.409335	17.102238	670.142361	888.315012	-38.529688	489.479818	1020.186746	-488.731209	689.450326	872.606012	-438.603685	13.376422	1148.612950	-226.765434	151.465607	1143.090459	-371.208735	149.223435	1139.791964	-67.065933	191.203556	1083.586078	-345.205080	194.208414	1090.105576	-89.061476	42.046136	1178.982761	-163.862953	44.487696	1189.154816	-273.291714	126.008285	994.089073	-41.012479	127.761174	1021.881965	-413.552633	235.479844	905.222239	-57.581927	311.325489	865.185068	-71.871501	353.725998	788.342848	-87.264670	333.210774	887.724823	-90.820617	413.383605	710.685225	-126.889885	390.144015	687.823335	-219.975663	386.355487	611.730712	-87.394643	394.917469	523.480135	-101.943624	361.040011	442.961616	-95.103864	415.161799	522.856847	-136.082880	340.125207	342.157256	-88.362737	336.042222	349.798973	-167.679057	270.961816	285.683302	-122.265342	530.351114	343.474566	-126.934094	454.977976	306.782941	-61.667769	227.742322	928.055665	-415.307408	301.962933	887.173391	-410.396306	326.608127	910.444071	-393.008900	348.656982	809.182679	-411.650782	382.870602	714.616573	-401.389573	396.167149	696.810326	-302.150493	112.501203	469.361306	-397.296259	134.080071	460.922048	-327.319098	41.632484	482.060884	-359.349184	133.586684	338.240109	-427.032619	311.449005	644.822061	-420.727342	265.023351	572.455029	-408.357292	186.040231	532.031101	-405.703098	284.839335	556.833433	-379.048127	212.673077	286.341693	-360.769606	-63.819245	853.528780	-238.720599	21.371704	84.395282	-441.537690	21.486812	83.909309	-43.382272	
503	2.5150	508.105393	1253.391253	-31.396379	547.498577	1246.451940	-340.217926	501.411791	1293.437847	-186.598626	479.435324	1155.137482	-191.674326	451.042306	998.996662	16.480258	670.138310	888.542454	-38.855412	489.379107	1020.078972	-489.277154	689.187088	872.592129	-438.955896	13.672697	1149.116066	-226.364202	151.653463	1143.671688	-370.997838	149.604666	1139.688860	-66.796855	191.343484	1084.073292	-345.066038	194.509129	1089.983953	-88.897731	42.474548	1179.173664	-163.501444	44.581008	1189.705142	-272.844892	126.118019	993.897742	-41.128175	128.400084	1023.119914	-413.658757	234.708888	903.763079	-57.731901	310.056798	862.761402	-72.342736	351.494446	785.527722	-87.849365	332.116954	885.192260	-91.297387	410.279454	707.577542	-127.636274	386.686815	684.658657	-220.470175	383.823748	608.469620	-87.816949	393.060200	520.353120	-102.282446	359.913426	439.604088	-95.357129	413.321894	519.877782	-136.420718	339.580813	338.539780	-88.508066	335.283081	346.150006	-167.684269	270.641575	282.276870	-122.326580	529.890359	337.975822	-127.500183	454.626708	302.346836	-61.764199	228.778490	929.698936	-415.143104	303.256106	889.360562	-410.162163	327.727393	912.717795	-392.526729	350.427538	811.832987	-411.415773	385.415652	717.534832	-401.520093	400.998195	700.669982	-300.595346	113.056459	473.784342	-397.295730	134.644929	465.347030	-327.322224	42.063442	486.522908	-359.477892	134.205836	342.737294	-427.067509	313.398103	647.911615	-420.534765	266.437643	575.847535	-408.178333	187.163628	536.068032	-405.639129	286.151779	560.100846	-378.916451	213.219043	290.934003	-360.757033	-63.867423	853.556007	-238.779038	21.350545	84.314894	-441.574815	21.485207	83.892941	-43.395352	
